<?xml version="1.0" encoding="UTF-8"?>
<svg version="1.1" viewBox="0 0 2000 358" xmlns="http://www.w3.org/2000/svg">
<g transform="translate(-1.2121 .59227)">
<svg width="2e3" height="358" data-background-color="#ffffff" viewBox="0 0 396 71" xmlns="http://www.w3.org/2000/svg" xmlns:xlink="http://www.w3.org/1999/xlink">
<g transform="translate(.24 -.11746)">
<svg width="395.52" height="71.235" viewBox="0 0 395.52 71.23459009163962">
<svg width="395.52" height="71.235" viewBox="0 0 524.6066275728216 94.48356107025535">
<g transform="translate(129.09 10.598)">
<svg width="395.52" height="73.288" viewBox="0 0 395.52000000000004 73.28798035921955">
<svg width="395.52" height="73.288" viewBox="0 0 395.52000000000004 73.28798035921955">
<svg width="395.52" height="73.288" viewBox="0 0 395.52000000000004 73.28798035921955">
<g>
<svg width="395.52" height="73.288" data-palette-color="#b71c1c" viewBox="3.25 -35.01 188.93 35.01">
<path class="wordmark-text-0" d="m17.26-28h-7.01v14.01h7.01q1.44 0 2.71-0.55t2.22-1.5 1.5-2.23q0.55-1.29 0.55-2.73t-0.55-2.72-1.5-2.23-2.22-1.5-2.71-0.55zm-7.01 20.99v7.01h-7v-35.01h14.01q1.93 0 3.71 0.5t3.33 1.42q1.55 0.91 2.84 2.19 1.28 1.29 2.19 2.85 0.92 1.56 1.42 3.34 0.5 1.79 0.5 3.71 0 1.81-0.45 3.52t-1.3 3.25q-0.84 1.53-2.06 2.83-1.22 1.29-2.73 2.24l3.88 9.16h-7.45l-3.05-7.06-7.84 0.05zm32.18-6.98h14.01v-7.01q0-1.44-0.55-2.72t-1.5-2.23-2.23-1.5-2.72-0.55-2.73 0.55q-1.28 0.55-2.23 1.5t-1.5 2.23-0.55 2.72v7.01zm21.02-7.01v21h-7.01v-7.01h-14.01v7.01h-6.98v-21q0-2.9 1.1-5.45 1.09-2.55 2.99-4.46 1.89-1.9 4.44-3t5.46-1.1q2.9 0 5.45 1.1t4.46 3q1.9 1.91 3 4.46t1.1 5.45zm34.08-14.01v35.01h-7.5l-13.5-23.05v23.05h-7v-35.01h7.49l13.5 23.07v-23.07h7.01zm13.5 28v7.01h-7.01v-35.01h7.01v17.51l13.03-17.51h7.96l-11.06 14.77 11.06 20.24h-7.96l-7.69-14.16-5.34 7.15zm48.24 0v7.01h-24v-35.01h24v7.01h-16.99v7h11.49v7.01h-11.49v6.98h16.99zm18.92-20.99h-7.01v14.01h7.01q1.44 0 2.71-0.55t2.22-1.5 1.5-2.23q0.55-1.29 0.55-2.73t-0.55-2.72-1.5-2.23-2.22-1.5-2.71-0.55zm-7.01 20.99v7.01h-7.01v-35.01h14.02q1.92 0 3.71 0.5 1.78 0.5 3.33 1.42 1.55 0.91 2.83 2.19 1.28 1.29 2.2 2.85 0.91 1.56 1.41 3.34 0.51 1.79 0.51 3.71 0 1.81-0.46 3.52-0.45 1.71-1.29 3.25-0.84 1.53-2.06 2.83-1.22 1.29-2.74 2.24l3.88 9.16h-7.44l-3.05-7.06-7.84 0.05z" fill="#b71c1c" data-fill-palette-color="primary"/>
</svg>
</g>
</svg>
</svg>
</svg>
</g>
<svg width="94.484" height="94.484" viewBox="0 0 94.48356107025535 94.48356107025535">
<svg/>
<svg width="94.484" height="94.484" viewBox="0 0 94.48356107025535 94.48356107025535">
<path d="m0 47.242c0-26.091 21.151-47.242 47.242-47.242s47.242 21.151 47.242 47.242-21.151 47.242-47.242 47.242-47.242-21.151-47.242-47.242zm47.242 40.632c22.441 0 40.633-18.192 40.632-40.632 0-22.441-18.192-40.633-40.632-40.633-22.441 0-40.633 18.192-40.633 40.633s18.192 40.633 40.633 40.632z" fill="#ff4136" stroke="transparent" data-fill-palette-color="accent"/>
<g transform="translate(34.8 23.263)">
<svg width="24.884" height="47.957" viewBox="0 0 24.883954038015865 47.95701771694827">
<svg class="icon-cg-0" width="24.884" height="47.957" enable-background="new 0 0 52 52" data-fill-palette-color="accent" version="1.1" viewBox="13.5468721 2 24.9062567 48" xml:space="preserve" xmlns="http://www.w3.org/2000/svg" xmlns:xlink="http://www.w3.org/1999/xlink"><g fill="#ff4136" data-fill-palette-color="accent"><polygon points="20.357 31.64 26 21.796 31.643 31.64 33.561 32.042 38.355 26.833 38.355 2 13.646 2 13.646 26.833 18.438 32.042" data-fill-palette-color="accent"/><polygon points="38.453 35.361 30.196 33.632 26 26.313 21.805 33.632 13.547 35.361 19.211 41.613 18.304 50 26 46.545 33.696 50 32.789 41.613" data-fill-palette-color="accent"/></g></svg>
</svg>
</g>
</svg>
</svg>
</svg>
</svg>
<rect width="395.52" height="71.235" fill="none" visibility="hidden"/>
</g>
</svg>
</g>
</svg>
